<?xml version="1.0" encoding="UTF-8"?>
<!DOCTYPE svg PUBLIC "-//W3C//DTD SVG 1.0//EN" "http://www.w3.org/TR/2001/REC-SVG-20010904/DTD/svg10.dtd">
<!-- Creator: CorelDRAW 2020 (64-Bit) -->
<svg xmlns="http://www.w3.org/2000/svg" xml:space="preserve" width="10mm" height="10mm" version="1.0" shape-rendering="geometricPrecision" text-rendering="geometricPrecision" image-rendering="optimizeQuality" fill-rule="evenodd" clip-rule="evenodd"
viewBox="0 0 11.55 11.55"
 xmlns:xlink="http://www.w3.org/1999/xlink"
 xmlns:xodm="http://www.corel.com/coreldraw/odm/2003">
 <g id="Слой_x0020_1">
  <metadata id="CorelCorpID_0Corel-Layer"/>
  <path fill="#5EDD74" fill-rule="nonzero" d="M7.54 0.38c-0.12,-0.31 -0.48,-0.46 -0.78,-0.34 -0.31,0.12 -0.46,0.47 -0.34,0.78l1.6 3.99 1.3 0 -1.77 -4.44zm-2.41 0.45c0.12,-0.31 -0.03,-0.66 -0.34,-0.78 -0.31,-0.12 -0.66,0.03 -0.78,0.34l-1.77 4.44 1.3 0 1.6 -3.99zm3.05 8.82c0,0.27 -0.22,0.48 -0.48,0.48 -0.27,0 -0.48,-0.22 -0.48,-0.48l0 -1.94c0,-0.27 0.22,-0.48 0.48,-0.48 0.27,0 0.48,0.22 0.48,0.48l0 1.94zm-1.93 0c0,0.27 -0.22,0.48 -0.48,0.48 -0.27,0 -0.48,-0.22 -0.48,-0.48l0 -1.94c0,-0.27 0.22,-0.48 0.48,-0.48 0.27,0 0.48,0.22 0.48,0.48l0 1.94zm-1.93 0c0,0.27 -0.22,0.48 -0.48,0.48 -0.27,0 -0.48,-0.22 -0.48,-0.48l0 -1.94c0,-0.27 0.22,-0.48 0.48,-0.48 0.27,0 0.48,0.22 0.48,0.48l0 1.94zm4.47 -4.35l-1.04 0 -3.97 0 -1.04 0 -1.79 0 -0.24 0c-0.4,0 -0.72,0.32 -0.72,0.72 0,0.4 0.32,0.72 0.72,0.72l0.2 0 1.34 4.35c0.08,0.25 0.36,0.46 0.62,0.46l5.78 0c0.26,0 0.55,-0.21 0.62,-0.46l1.34 -4.35 0.2 0c0.4,0 0.72,-0.32 0.72,-0.72 0,-0.4 -0.32,-0.72 -0.72,-0.72l-0.24 0 -1.79 0z"/>
 </g>
</svg>
