<?xml version="1.0" encoding="UTF-8"?>
<!DOCTYPE svg PUBLIC "-//W3C//DTD SVG 1.0//EN" "http://www.w3.org/TR/2001/REC-SVG-20010904/DTD/svg10.dtd">
<!-- Creator: CorelDRAW 2020 (64-Bit) -->
<svg xmlns="http://www.w3.org/2000/svg" xml:space="preserve" width="10mm" height="10mm" version="1.0" shape-rendering="geometricPrecision" text-rendering="geometricPrecision" image-rendering="optimizeQuality" fill-rule="evenodd" clip-rule="evenodd"
viewBox="0 0 103.2 103.2"
 xmlns:xlink="http://www.w3.org/1999/xlink"
 xmlns:xodm="http://www.corel.com/coreldraw/odm/2003">
 <g id="Слой_x0020_1">
  <metadata id="CorelCorpID_0Corel-Layer"/>
  <path fill="#59CBDF" fill-rule="nonzero" d="M99.04 0l-94.88 0c-2.3,0 -4.16,2.12 -4.16,4.73l0 54.84c0,2.61 1.86,4.73 4.16,4.73l94.88 0c2.3,0 4.16,-2.12 4.16,-4.73l0 -54.84c0,-2.61 -1.86,-4.73 -4.16,-4.73zm0 94.88l-94.88 0c-2.3,0 -4.16,1.86 -4.16,4.16 0,2.3 1.86,4.16 4.16,4.16l94.88 0c2.3,0 4.16,-1.86 4.16,-4.16 0,-2.3 -1.86,-4.16 -4.16,-4.16zm0 -12.97l-94.88 0c-2.3,0 -4.16,1.86 -4.16,4.16 0,2.3 1.86,4.16 4.16,4.16l94.88 0c2.3,0 4.16,-1.86 4.16,-4.16 0,-2.3 -1.86,-4.16 -4.16,-4.16zm0 -12.97l-94.88 0c-2.3,0 -4.16,1.86 -4.16,4.16 0,2.3 1.86,4.16 4.16,4.16l94.88 0c2.3,0 4.16,-1.86 4.16,-4.16 0,-2.3 -1.86,-4.16 -4.16,-4.16zm-35.58 -38.72c-1.06,-6.55 -7.23,-11 -13.78,-9.93 -6.55,1.06 -11,7.23 -9.93,13.78 1.06,6.55 7.23,10.99 13.78,9.93 6.55,-1.06 11,-7.23 9.93,-13.78zm20.14 24.61l-63.99 0c-1.48,-6.24 -5.79,-11.15 -11.28,-12.82l0 -19.72c5.49,-1.68 9.8,-6.58 11.28,-12.83l63.99 0c1.48,6.24 5.79,11.15 11.28,12.83l0 19.72c-5.49,1.68 -9.8,6.58 -11.28,12.82z"/>
 </g>
</svg>
