<?xml version="1.0" encoding="UTF-8"?>
<!DOCTYPE svg PUBLIC "-//W3C//DTD SVG 1.0//EN" "http://www.w3.org/TR/2001/REC-SVG-20010904/DTD/svg10.dtd">
<!-- Creator: CorelDRAW 2020 (64-Bit) -->
<svg xmlns="http://www.w3.org/2000/svg" xml:space="preserve" width="10mm" height="10mm" version="1.0" shape-rendering="geometricPrecision" text-rendering="geometricPrecision" image-rendering="optimizeQuality" fill-rule="evenodd" clip-rule="evenodd"
viewBox="0 0 17.2 17.2"
 xmlns:xlink="http://www.w3.org/1999/xlink"
 xmlns:xodm="http://www.corel.com/coreldraw/odm/2003">
 <g id="Слой_x0020_1">
  <metadata id="CorelCorpID_0Corel-Layer"/>
  <path fill="#FFD324" d="M0.42 17.2l10.9 0c0.23,0 0.42,-0.19 0.42,-0.42l0 -4.3c0.56,0.37 1.22,0.59 1.94,0.59 1.94,0 3.51,-1.57 3.51,-3.51 0,-1.94 -1.57,-3.51 -3.51,-3.51 -0.72,0 -1.39,0.22 -1.94,0.59l0 -3.7c0,-0.23 -0.19,-0.42 -0.42,-0.42l-1.68 0 0 0.42c0,0.23 -0.19,0.42 -0.42,0.42l-6.71 0c-0.23,0 -0.42,-0.19 -0.42,-0.42l0 -0.42 -1.68 0c-0.23,0 -0.42,0.19 -0.42,0.42l-0 13.84c0,0.23 0.19,0.42 0.42,0.42l0 0zm15.14 -9.51c-0.48,-0.48 -1.14,-0.77 -1.87,-0.77 -0.73,0 -1.39,0.3 -1.87,0.78 -0.48,0.48 -0.78,1.14 -0.78,1.87 0,0.73 0.3,1.4 0.77,1.87l0 0c0.48,0.48 1.14,0.78 1.87,0.78 0.73,0 1.39,-0.3 1.87,-0.78 0.48,-0.48 0.78,-1.14 0.78,-1.87 0,-0.73 -0.3,-1.39 -0.78,-1.87l0 -0zm-13.38 -2.08l1.21 0 0 1.21 -1.21 0 0 -1.21zm2.37 0l5.03 0 0 1.21 -5.03 0 0 -1.21zm-2.37 2.41l1.21 0 0 1.21 -1.21 0 0 -1.21zm2.37 0l5.03 0 0 1.21 -5.03 0 0 -1.21zm-2.37 2.41l1.21 0 0 1.21 -1.21 0 0 -1.21zm2.37 0l5.03 0 0 1.21 -5.03 0 0 -1.21zm-2.37 2.41l1.21 0 0 1.21 -1.21 0 0 -1.21zm2.37 0l5.03 0 0 1.21 -5.03 0 0 -1.21zm3.43 -11.16c-0.19,0 -0.36,-0.13 -0.41,-0.32l-0.34 -1.36 -2.7 0 -0.34 1.36c-0.05,0.19 -0.21,0.32 -0.41,0.32l-0.84 0 0 0.84 5.87 0 0 -0.84 -0.84 0zm-2.1 0.42c-0.46,0 -0.84,-0.38 -0.84,-0.84 0,-0.46 0.38,-0.84 0.84,-0.84 0.46,0 0.84,0.38 0.84,0.84 0,0.46 -0.38,0.84 -0.84,0.84l0 0zm6.57 6.87l1.03 1.03 1.74 -1.74 0.55 0.55 -1.74 1.74 -0.55 0.55 -0.55 -0.55 -1.03 -1.03 0.55 -0.55z"/>
 </g>
</svg>
