<?xml version="1.0" encoding="UTF-8"?>
<!DOCTYPE svg PUBLIC "-//W3C//DTD SVG 1.0//EN" "http://www.w3.org/TR/2001/REC-SVG-20010904/DTD/svg10.dtd">
<!-- Creator: CorelDRAW 2020 (64-Bit) -->
<svg xmlns="http://www.w3.org/2000/svg" xml:space="preserve" width="9.9999mm" height="10mm" version="1.0" shape-rendering="geometricPrecision" text-rendering="geometricPrecision" image-rendering="optimizeQuality" fill-rule="evenodd" clip-rule="evenodd"
viewBox="0 0 308.7 308.7"
 xmlns:xlink="http://www.w3.org/1999/xlink"
 xmlns:xodm="http://www.corel.com/coreldraw/odm/2003">
 <g id="Слой_x0020_1">
  <metadata id="CorelCorpID_0Corel-Layer"/>
  <g id="_1820512901616">
   <path fill="#FF6582" fill-rule="nonzero" d="M74.84 185.35c-17.09,0 -30.99,-13.9 -30.99,-31 0,-17.09 13.9,-30.99 30.99,-30.99 17.09,0 30.99,13.9 30.99,30.99 0,17.1 -13.9,31 -30.99,31zm51.84 2.58c4.03,-6.21 7,-13.17 8.6,-20.64l14.39 -0.01 0 -25.85 -14.39 0c-1.59,-7.47 -4.56,-14.43 -8.59,-20.64l10.21 -10.21 -18.28 -18.28 -10.21 10.21c-6.21,-4.03 -13.17,-7 -20.63,-8.59l0 -14.39 -25.86 0 0 14.38c-7.47,1.6 -14.43,4.57 -20.65,8.6l-10.2 -10.2 -18.28 18.28 10.21 10.21c-4.03,6.21 -7,13.17 -8.59,20.64l-14.39 0 0 25.85 14.39 0c1.6,7.47 4.56,14.43 8.6,20.65l-10.21 10.21 18.28 18.28 10.21 -10.21c6.21,4.03 13.17,7 20.63,8.59l0 14.39 25.86 0 0 -14.39c7.47,-1.6 14.43,-4.56 20.64,-8.6l10.21 10.21 18.28 -18.28 -10.2 -10.21z"/>
   <path fill="#FF6582" fill-rule="nonzero" d="M233.87 105.82c-17.09,0 -30.99,-13.9 -30.99,-30.99 0,-17.09 13.9,-30.99 30.99,-30.99 17.09,0 30.99,13.9 30.99,30.99 0,17.09 -13.9,30.99 -30.99,30.99zm60.44 -43.92c-1.6,-7.47 -4.56,-14.43 -8.59,-20.64l10.21 -10.21 -18.28 -18.28 -10.21 10.2c-6.21,-4.03 -13.17,-7 -20.64,-8.59l0 -14.39 -25.86 0 0 14.39c-7.47,1.6 -14.43,4.56 -20.64,8.59l-10.21 -10.2 -18.28 18.28 10.21 10.21c-4.03,6.21 -7,13.17 -8.59,20.64l-14.39 0 0 25.85 14.39 0c1.6,7.47 4.56,14.43 8.6,20.64l-10.2 10.21 18.28 18.28 10.2 -10.2c6.21,4.03 13.17,7 20.64,8.59l0 14.39 25.85 0 0 -14.39c7.47,-1.59 14.43,-4.56 20.64,-8.59l10.21 10.2 18.28 -18.28 -10.2 -10.21c4.03,-6.21 7,-13.17 8.59,-20.64l14.39 -0.01 0 -25.85 -14.39 0 0 -0.01z"/>
   <path fill="#FF6582" fill-rule="nonzero" d="M211.51 264.86c-17.09,0 -30.99,-13.9 -30.99,-30.99 0,-17.09 13.9,-30.99 30.99,-30.99 17.09,0 30.99,13.9 30.99,30.99 0,17.09 -13.9,30.99 -30.99,30.99zm51.85 -64.56l10.21 -10.21 -18.28 -18.28 -10.2 10.2c-6.21,-4.03 -13.17,-7 -20.64,-8.59l0 -14.39 -25.86 0 0 14.39c-7.47,1.6 -14.43,4.56 -20.64,8.59l-10.2 -10.2 -18.28 18.28 10.2 10.21c-4.03,6.21 -7,13.17 -8.59,20.64l-14.39 0 0 25.85 14.39 0c1.6,7.47 4.56,14.44 8.6,20.65l-10.21 10.2 18.28 18.28 10.21 -10.21c6.21,4.04 13.17,7 20.64,8.6l0 14.38 25.85 0 0 -14.38c7.47,-1.6 14.43,-4.57 20.65,-8.6l10.2 10.21 18.28 -18.28 -10.2 -10.21c4.03,-6.21 7,-13.17 8.6,-20.64l14.39 -0.01 0 -25.85 -14.38 0c-1.6,-7.47 -4.57,-14.43 -8.6,-20.64z"/>
  </g>
 </g>
</svg>
