<?xml version="1.0" encoding="UTF-8"?>
<!DOCTYPE svg PUBLIC "-//W3C//DTD SVG 1.0//EN" "http://www.w3.org/TR/2001/REC-SVG-20010904/DTD/svg10.dtd">
<!-- Creator: CorelDRAW 2020 (64-Bit) -->
<svg xmlns="http://www.w3.org/2000/svg" xml:space="preserve" width="10mm" height="10mm" version="1.0" shape-rendering="geometricPrecision" text-rendering="geometricPrecision" image-rendering="optimizeQuality" fill-rule="evenodd" clip-rule="evenodd"
viewBox="0 0 13.92 13.92"
 xmlns:xlink="http://www.w3.org/1999/xlink"
 xmlns:xodm="http://www.corel.com/coreldraw/odm/2003">
 <g id="Слой_x0020_1">
  <metadata id="CorelCorpID_0Corel-Layer"/>
  <path fill="#FF8333" fill-rule="nonzero" d="M11.98 0l-10.04 0c-1.07,0 -1.94,0.89 -1.94,1.99l0 7c0,1.1 0.87,1.99 1.94,1.99l2.91 0 1.71 2.71c0.09,0.14 0.24,0.22 0.4,0.22 0.16,0 0.31,-0.08 0.4,-0.22l1.71 -2.71 2.91 0c1.07,0 1.94,-0.89 1.94,-1.99l0 -7c0,0 0,0 0,0 0,-1.1 -0.87,-1.99 -1.94,-1.99 -0,0 -0,0 -0,0l0 -0zm-7.14 8.86c-0.09,0.1 -0.22,0.15 -0.35,0.15 -0.13,0 -0.26,-0.05 -0.35,-0.15l-0.32 -0.33c-0.09,-0.1 -0.15,-0.23 -0.15,-0.36 0,-0.14 0.05,-0.27 0.15,-0.36l1.65 -1.7 1.03 1.06 -1.65 1.69zm4.94 0.16c-0.17,0 -0.33,-0.07 -0.45,-0.2l-3.61 -3.71c-0.19,0.08 -0.4,0.13 -0.6,0.13 -0.9,-0.01 -1.63,-0.76 -1.64,-1.68 0,-0.23 0.05,-0.46 0.15,-0.67l0.05 -0.11 0.97 1c0.09,0.1 0.21,0.15 0.34,0.15 0.13,0 0.25,-0.05 0.34,-0.15 0.09,-0.09 0.15,-0.22 0.15,-0.35 0,-0.13 -0.05,-0.26 -0.15,-0.35l-0.97 -1 0.11 -0.05c0.21,-0.1 0.43,-0.15 0.66,-0.15 0.9,0.01 1.63,0.76 1.64,1.68 -0,0.21 -0.05,0.42 -0.13,0.62l3.61 3.71c0.12,0.12 0.19,0.29 0.19,0.47 0,0.36 -0.3,0.67 -0.65,0.67zm-0.24 -5.42l-0.05 -0.01c-0.04,-0.01 -0.09,-0.02 -0.14,-0.02 -0.01,0 -0.03,-0.01 -0.04,0l-1.08 1.11 -0.38 -0.39 1.08 -1.11c0,-0.01 0,-0.03 0,-0.04 0,-0.04 -0.01,-0.09 -0.02,-0.13l-0.01 -0.05 1.05 -0.92 0.48 0.5 -0.9 1.06z"/>
 </g>
</svg>
