<?xml version="1.0" encoding="UTF-8"?>
<!DOCTYPE svg PUBLIC "-//W3C//DTD SVG 1.0//EN" "http://www.w3.org/TR/2001/REC-SVG-20010904/DTD/svg10.dtd">
<!-- Creator: CorelDRAW 2020 (64-Bit) -->
<svg xmlns="http://www.w3.org/2000/svg" xml:space="preserve" width="10mm" height="10mm" version="1.0" shape-rendering="geometricPrecision" text-rendering="geometricPrecision" image-rendering="optimizeQuality" fill-rule="evenodd" clip-rule="evenodd"
viewBox="0 0 26.46 26.46"
 xmlns:xlink="http://www.w3.org/1999/xlink"
 xmlns:xodm="http://www.corel.com/coreldraw/odm/2003">
 <g id="Слой_x0020_1">
  <metadata id="CorelCorpID_0Corel-Layer"/>
  <path fill="#CE71DD" fill-rule="nonzero" d="M25.36 0l-24.26 0c-0.61,0 -1.1,0.5 -1.1,1.1l0 17.64c0,0.61 0.5,1.1 1.1,1.1l24.26 0c0.61,0 1.1,-0.5 1.1,-1.1l0 -17.64c0,-0.61 -0.5,-1.1 -1.1,-1.1l0 0zm-25.36 23.7c0,0.61 0.5,1.1 1.1,1.1l18.74 0 0 0.55c0,0.61 0.5,1.1 1.1,1.1 0.61,0 1.1,-0.5 1.1,-1.1l0 -0.55 3.31 0c0.61,0 1.1,-0.5 1.1,-1.1 0,-0.61 -0.5,-1.1 -1.1,-1.1l-3.31 0 0 -0.55c0,-0.61 -0.5,-1.1 -1.1,-1.1 -0.61,0 -1.1,0.5 -1.1,1.1l0 0.55 -18.74 0c-0.61,0 -1.1,0.5 -1.1,1.1l0 0zm17.1 -12.84l-5.51 3.31c-0.17,0.1 -0.37,0.16 -0.56,0.16 -0.19,0 -0.37,-0.05 -0.54,-0.14 -0.34,-0.19 -0.56,-0.57 -0.56,-0.96l0 -6.62c0,-0.4 0.21,-0.76 0.56,-0.96 0.34,-0.19 0.77,-0.19 1.11,0.01l5.51 3.31c0.33,0.2 0.54,0.56 0.54,0.94 0,0.39 -0.2,0.74 -0.54,0.94l0 0z"/>
 </g>
</svg>
